REM DIRINDEX 1\2,1\3,1\4,1\5\6,1\5\7,1\8
REM DIRNAME cjc115,folder01,folder02,folder03,folder04,folder05,folder06,folder07
TITLE ""
FILE "036 【036】Unit2 (0409 prominent_0420 opponent).mp3" MP3
  TRACK 01 AUDIO
    TITLE "0:"
    INDEX 01 00:00:00
  TRACK 02 AUDIO
    TITLE "2:cjc115_1342"
    INDEX 01 00:00:07
  TRACK 03 AUDIO
    TITLE "0:"
    INDEX 01 00:01:30
  TRACK 04 AUDIO
    TITLE "3:cjc115_1343"
    INDEX 01 00:01:38
  TRACK 05 AUDIO
    TITLE "0:"
    INDEX 01 00:03:37
  TRACK 06 AUDIO
    TITLE "4:cjc115_1344"
    INDEX 01 00:03:51
  TRACK 07 AUDIO
    TITLE "0:"
    INDEX 01 00:08:38
  TRACK 08 AUDIO
    TITLE "2:cjc115_1345"
    INDEX 01 00:09:45
  TRACK 09 AUDIO
    TITLE "0:"
    INDEX 01 00:11:15
  TRACK 10 AUDIO
    TITLE "3:cjc115_1346"
    INDEX 01 00:11:21
  TRACK 11 AUDIO
    TITLE "0:"
    INDEX 01 00:12:32
  TRACK 12 AUDIO
    TITLE "4:cjc115_1347"
    INDEX 01 00:12:40
  TRACK 13 AUDIO
    TITLE "0:"
    INDEX 01 00:15:54
  TRACK 14 AUDIO
    TITLE "2:cjc115_1348"
    INDEX 01 00:16:63
  TRACK 15 AUDIO
    TITLE "0:"
    INDEX 01 00:18:13
  TRACK 16 AUDIO
    TITLE "3:cjc115_1349"
    INDEX 01 00:18:25
  TRACK 17 AUDIO
    TITLE "0:"
    INDEX 01 00:19:52
  TRACK 18 AUDIO
    TITLE "4:cjc115_1350"
    INDEX 01 00:19:63
  TRACK 19 AUDIO
    TITLE "0:"
    INDEX 01 00:23:06
  TRACK 20 AUDIO
    TITLE "2:cjc115_1351"
    INDEX 01 00:24:16
  TRACK 21 AUDIO
    TITLE "0:"
    INDEX 01 00:25:29
  TRACK 22 AUDIO
    TITLE "3:cjc115_1352"
    INDEX 01 00:25:39
  TRACK 23 AUDIO
    TITLE "0:"
    INDEX 01 00:28:62
  TRACK 24 AUDIO
    TITLE "4:cjc115_1353"
    INDEX 01 00:28:68
  TRACK 25 AUDIO
    TITLE "0:"
    INDEX 01 00:33:32
  TRACK 26 AUDIO
    TITLE "2:cjc115_1354"
    INDEX 01 00:34:42
  TRACK 27 AUDIO
    TITLE "0:"
    INDEX 01 00:35:70
  TRACK 28 AUDIO
    TITLE "3:cjc115_1355"
    INDEX 01 00:36:03
  TRACK 29 AUDIO
    TITLE "0:"
    INDEX 01 00:37:18
  TRACK 30 AUDIO
    TITLE "4:cjc115_1356"
    INDEX 01 00:37:26
  TRACK 31 AUDIO
    TITLE "0:"
    INDEX 01 00:41:53
  TRACK 32 AUDIO
    TITLE "2:cjc115_1357"
    INDEX 01 00:42:61
  TRACK 33 AUDIO
    TITLE "0:"
    INDEX 01 00:44:20
  TRACK 34 AUDIO
    TITLE "3:cjc115_1358"
    INDEX 01 00:44:28
  TRACK 35 AUDIO
    TITLE "0:"
    INDEX 01 00:46:31
  TRACK 36 AUDIO
    TITLE "4:cjc115_1359"
    INDEX 01 00:46:39
  TRACK 37 AUDIO
    TITLE "0:"
    INDEX 01 00:50:25
  TRACK 38 AUDIO
    TITLE "2:cjc115_1360"
    INDEX 01 00:51:36
  TRACK 39 AUDIO
    TITLE "0:"
    INDEX 01 00:52:57
  TRACK 40 AUDIO
    TITLE "3:cjc115_1361"
    INDEX 01 00:52:65
  TRACK 41 AUDIO
    TITLE "0:"
    INDEX 01 00:55:08
  TRACK 42 AUDIO
    TITLE "4:cjc115_1362"
    INDEX 01 00:55:14
  TRACK 43 AUDIO
    TITLE "0:"
    INDEX 01 00:59:61
  TRACK 44 AUDIO
    TITLE "2:cjc115_1363"
    INDEX 01 01:00:68
  TRACK 45 AUDIO
    TITLE "0:"
    INDEX 01 01:02:32
  TRACK 46 AUDIO
    TITLE "3:cjc115_1364"
    INDEX 01 01:02:42
  TRACK 47 AUDIO
    TITLE "0:"
    INDEX 01 01:03:53
  TRACK 48 AUDIO
    TITLE "4:cjc115_1365"
    INDEX 01 01:03:61
  TRACK 49 AUDIO
    TITLE "0:"
    INDEX 01 01:07:53
  TRACK 50 AUDIO
    TITLE "2:cjc115_1366"
    INDEX 01 01:08:66
  TRACK 51 AUDIO
    TITLE "0:"
    INDEX 01 01:10:12
  TRACK 52 AUDIO
    TITLE "3:cjc115_1367"
    INDEX 01 01:10:22
  TRACK 53 AUDIO
    TITLE "0:"
    INDEX 01 01:11:74
  TRACK 54 AUDIO
    TITLE "4:cjc115_1368"
    INDEX 01 01:12:09
  TRACK 55 AUDIO
    TITLE "0:"
    INDEX 01 01:16:56
  TRACK 56 AUDIO
    TITLE "2:cjc115_1369"
    INDEX 01 01:17:67
  TRACK 57 AUDIO
    TITLE "0:"
    INDEX 01 01:19:13
  TRACK 58 AUDIO
    TITLE "3:cjc115_1370"
    INDEX 01 01:19:27
  TRACK 59 AUDIO
    TITLE "0:"
    INDEX 01 01:20:26
  TRACK 60 AUDIO
    TITLE "4:cjc115_1371"
    INDEX 01 01:20:36
  TRACK 61 AUDIO
    TITLE "0:"
    INDEX 01 01:23:18
  TRACK 62 AUDIO
    TITLE "2:cjc115_1372"
    INDEX 01 01:24:26
  TRACK 63 AUDIO
    TITLE "0:"
    INDEX 01 01:25:74
  TRACK 64 AUDIO
    TITLE "3:cjc115_1373"
    INDEX 01 01:26:05
  TRACK 65 AUDIO
    TITLE "0:"
    INDEX 01 01:28:55
  TRACK 66 AUDIO
    TITLE "4:cjc115_1374"
    INDEX 01 01:28:67
  TRACK 67 AUDIO
    TITLE "0:"
    INDEX 01 01:33:09
  TRACK 68 AUDIO
    TITLE "2:cjc115_1375"
    INDEX 01 01:34:16
  TRACK 69 AUDIO
    TITLE "0:"
    INDEX 01 01:35:37
  TRACK 70 AUDIO
    TITLE "3:cjc115_1376"
    INDEX 01 01:35:45
  TRACK 71 AUDIO
    TITLE "0:"
    INDEX 01 01:38:28
  TRACK 72 AUDIO
    TITLE "4:cjc115_1377"
    INDEX 01 01:38:36
  TRACK 73 AUDIO
    TITLE "0:"
    INDEX 01 01:41:54
